# xmcd CD database file
#
# Track frame offsets:
#	150
#	11135
#	23379
#	37134
#	52084
#	69700
#	87904
#	102425
#	117471
#	130846
#
# Disc length: 1999 seconds
#
# Revision: 0
# Processed by: cddbd v1.5.2PL0 Copyright (c) Steve Scherf et al.
# Submitted via: CDex 1.51
#
DISCID=8907cd0a
DTITLE=Bo Diddley - Bo Diddley's Beach Party
DYEAR=1983
DGENRE=Blues
TTITLE0=Memphis
TTITLE1=Gunslinger (a.k.a. Bo Diddley's A Gunslinger)
TTITLE2=Hey Bo Diddley
TTITLE3=Old Smokey
TTITLE4=Bo Diddley's Dog
TTITLE5=I'm All Right
TTITLE6=Mr. Custer
TTITLE7=Bo's Waltz
TTITLE8=What's Buggin' You (a.k.a. Crackin' Up)
TTITLE9=Road Runner
EXTD=YEAR: 1983
EXTT0=
EXTT1=
EXTT2=
EXTT3=
EXTT4=
EXTT5=
EXTT6=
EXTT7=
EXTT8=
EXTT9=
PLAYORDER=
